<svg width="48" height="48" viewBox="0 0 48 48" xmlns="http://www.w3.org/2000/svg">
  <defs>
    <linearGradient id="leafGradient48" x1="0%" y1="0%" x2="100%" y2="100%">
      <stop offset="0%" style="stop-color:#66BB6A;stop-opacity:1" />
      <stop offset="50%" style="stop-color:#4CAF50;stop-opacity:1" />
      <stop offset="100%" style="stop-color:#2E7D32;stop-opacity:1" />
    </linearGradient>
    <radialGradient id="co2Gradient" cx="50%" cy="50%" r="50%">
      <stop offset="0%" style="stop-color:#FF7043;stop-opacity:1" />
      <stop offset="100%" style="stop-color:#D84315;stop-opacity:1" />
    </radialGradient>
    <filter id="shadow" x="-20%" y="-20%" width="140%" height="140%">
      <feDropShadow dx="1" dy="2" stdDeviation="1" flood-color="#000000" flood-opacity="0.3"/>
    </filter>
  </defs>
  
  <!-- Main leaf shape -->
  <path d="M24 6C18 6 13 11 13 17C13 23 18 28 24 28C30 28 35 23 35 17C35 11 30 6 24 6Z" 
        fill="url(#leafGradient48)" stroke="#1B5E20" stroke-width="1.5" filter="url(#shadow)"/>
  
  <!-- Leaf stem -->
  <path d="M24 28L24 42" stroke="#2E7D32" stroke-width="3" stroke-linecap="round"/>
  
  <!-- Main vein -->
  <path d="M24 8L24 26" stroke="#1B5E20" stroke-width="2" stroke-linecap="round"/>
  
  <!-- Side veins -->
  <path d="M20 12L24 16" stroke="#1B5E20" stroke-width="1" stroke-linecap="round" opacity="0.7"/>
  <path d="M28 12L24 16" stroke="#1B5E20" stroke-width="1" stroke-linecap="round" opacity="0.7"/>
  <path d="M19 18L24 20" stroke="#1B5E20" stroke-width="1" stroke-linecap="round" opacity="0.7"/>
  <path d="M29 18L24 20" stroke="#1B5E20" stroke-width="1" stroke-linecap="round" opacity="0.7"/>
  
  <!-- CO2 emission indicator -->
  <circle cx="36" cy="36" r="8" fill="url(#co2Gradient)" filter="url(#shadow)"/>
  <text x="36" y="40" font-family="Arial, sans-serif" font-size="7" font-weight="bold" 
        text-anchor="middle" fill="white">CO₂</text>
  
  <!-- Small emission particles -->
  <circle cx="32" cy="30" r="1.5" fill="#FF5722" opacity="0.6"/>
  <circle cx="38" cy="28" r="1" fill="#FF5722" opacity="0.4"/>
  <circle cx="34" cy="26" r="0.8" fill="#FF5722" opacity="0.3"/>
</svg>