<svg width="32" height="32" viewBox="0 0 32 32" xmlns="http://www.w3.org/2000/svg">
  <defs>
    <linearGradient id="leafGradient32" x1="0%" y1="0%" x2="100%" y2="100%">
      <stop offset="0%" style="stop-color:#66BB6A;stop-opacity:1" />
      <stop offset="50%" style="stop-color:#4CAF50;stop-opacity:1" />
      <stop offset="100%" style="stop-color:#2E7D32;stop-opacity:1" />
    </linearGradient>
    <radialGradient id="co2Gradient32" cx="50%" cy="50%" r="50%">
      <stop offset="0%" style="stop-color:#FF7043;stop-opacity:1" />
      <stop offset="100%" style="stop-color:#D84315;stop-opacity:1" />
    </radialGradient>
    <filter id="shadow32" x="-20%" y="-20%" width="140%" height="140%">
      <feDropShadow dx="1" dy="2" stdDeviation="1" flood-color="#000000" flood-opacity="0.3"/>
    </filter>
  </defs>
  
  <!-- Main leaf shape -->
  <path d="M16 4C12 4 9 7 9 11C9 15 12 18 16 18C20 18 23 15 23 11C23 7 20 4 16 4Z" 
        fill="url(#leafGradient32)" stroke="#1B5E20" stroke-width="1" filter="url(#shadow32)"/>
  
  <!-- Leaf stem -->
  <path d="M16 18L16 28" stroke="#2E7D32" stroke-width="2" stroke-linecap="round"/>
  
  <!-- Main vein -->
  <path d="M16 5L16 17" stroke="#1B5E20" stroke-width="1.5" stroke-linecap="round"/>
  
  <!-- Side veins -->
  <path d="M13 8L16 11" stroke="#1B5E20" stroke-width="1" stroke-linecap="round" opacity="0.7"/>
  <path d="M19 8L16 11" stroke="#1B5E20" stroke-width="1" stroke-linecap="round" opacity="0.7"/>
  <path d="M12 12L16 14" stroke="#1B5E20" stroke-width="1" stroke-linecap="round" opacity="0.7"/>
  <path d="M20 12L16 14" stroke="#1B5E20" stroke-width="1" stroke-linecap="round" opacity="0.7"/>
  
  <!-- CO2 emission indicator -->
  <circle cx="24" cy="24" r="5" fill="url(#co2Gradient32)" filter="url(#shadow32)"/>
  <text x="24" y="27" font-family="Arial, sans-serif" font-size="4.5" font-weight="bold" 
        text-anchor="middle" fill="white">CO₂</text>
  
  <!-- Small emission particles -->
  <circle cx="21" cy="20" r="1" fill="#FF5722" opacity="0.6"/>
  <circle cx="25" cy="19" r="0.8" fill="#FF5722" opacity="0.4"/>
  <circle cx="23" cy="17" r="0.6" fill="#FF5722" opacity="0.3"/>
</svg>